<?xml version="1.0" encoding="iso-8859-1"?>
<!-- Generator: Adobe Illustrator 19.0.0, SVG Export Plug-In . SVG Version: 6.00 Build 0)  -->
<svg version="1.1" id="Layer_1" xmlns="http://www.w3.org/2000/svg" xmlns:xlink="http://www.w3.org/1999/xlink" x="0px" y="0px"
	 viewBox="0 0 512 512" style="enable-background:new 0 0 512 512;" xml:space="preserve">
<g>
	<path style="fill:#1D1D1B;" d="M452.105,112.06H304.026v15.734h148.079c24.35,0,44.16,19.811,44.16,44.16
		c0,24.351-19.811,44.161-44.16,44.161v15.734c33.026,0,59.895-26.869,59.895-59.896S485.131,112.06,452.105,112.06z"/>
	<rect x="159.946" y="408.215" style="fill:#1D1D1B;" width="16.008" height="15.734"/>
	<rect x="183.957" y="408.215" style="fill:#1D1D1B;" width="16.009" height="15.734"/>
	<rect x="207.978" y="408.215" style="fill:#1D1D1B;" width="16.009" height="15.734"/>
	<rect x="231.989" y="408.215" style="fill:#1D1D1B;" width="16.008" height="15.734"/>
	<rect x="256" y="408.215" style="fill:#1D1D1B;" width="16.009" height="15.734"/>
	<rect x="280.011" y="408.215" style="fill:#1D1D1B;" width="16.009" height="15.734"/>
	<rect x="304.022" y="408.215" style="fill:#1D1D1B;" width="16.008" height="15.734"/>
	<rect x="328.043" y="408.215" style="fill:#1D1D1B;" width="16.009" height="15.734"/>
	<rect x="352.054" y="408.215" style="fill:#1D1D1B;" width="16.009" height="15.734"/>
	<rect x="376.065" y="408.215" style="fill:#1D1D1B;" width="16.008" height="15.734"/>
	<rect x="400.075" y="408.215" style="fill:#1D1D1B;" width="16.009" height="15.734"/>
	<rect x="79.91" y="472.255" style="fill:#1D1D1B;" width="16.008" height="15.734"/>
	<rect x="103.921" y="472.255" style="fill:#1D1D1B;" width="16.009" height="15.734"/>
	<rect x="127.932" y="472.255" style="fill:#1D1D1B;" width="16.009" height="15.734"/>
	<rect x="151.943" y="472.255" style="fill:#1D1D1B;" width="16.008" height="15.734"/>
	<rect x="175.953" y="472.255" style="fill:#1D1D1B;" width="16.009" height="15.734"/>
	<rect x="199.975" y="472.255" style="fill:#1D1D1B;" width="16.008" height="15.734"/>
	<rect x="223.986" y="472.255" style="fill:#1D1D1B;" width="16.008" height="15.734"/>
	<rect x="247.996" y="472.255" style="fill:#1D1D1B;" width="16.009" height="15.734"/>
	<rect x="272.007" y="472.255" style="fill:#1D1D1B;" width="16.008" height="15.734"/>
	<rect x="296.018" y="472.255" style="fill:#1D1D1B;" width="16.008" height="15.734"/>
	<rect x="320.039" y="472.255" style="fill:#1D1D1B;" width="16.009" height="15.734"/>
	<rect x="344.05" y="472.255" style="fill:#1D1D1B;" width="16.008" height="15.734"/>
	<path style="fill:#1D1D1B;" d="M400.076,176.094H95.914c-23.242,0-42.664,16.646-46.984,38.642
		c-19.063-4.888-33.196-22.215-33.196-42.781c0-24.35,19.811-44.16,44.16-44.16H256c35.233,0,63.897-28.664,63.897-63.898
		C319.897,28.664,291.233,0,256,0s-63.897,28.664-63.897,63.897h15.734c0-26.557,21.604-48.162,48.162-48.162
		s48.162,21.606,48.162,48.162S282.557,112.06,256,112.06H59.895C26.868,112.06,0,138.928,0,171.955
		c0,28.963,20.666,53.187,48.025,58.711V512h343.911v-47.888h-15.734v8.142h-8.142v15.734h8.142v8.278H63.759v-8.278h8.142v-15.734
		h-8.142V231.85h56.168v-15.734h-55.19c3.518-13.939,16.16-24.287,31.177-24.287c17.73,0,32.154,14.424,32.154,32.154V455.97
		h319.898V223.982C447.966,197.577,426.482,176.094,400.076,176.094z M432.231,408.219h-8.142v15.734h8.142v16.282H143.803v-16.282
		h8.142v-15.734h-8.142V223.982c0-12.363-4.711-23.649-12.43-32.154h268.704c17.73,0,32.154,14.424,32.154,32.154v184.236H432.231z"
		/>
</g>
<g>
</g>
<g>
</g>
<g>
</g>
<g>
</g>
<g>
</g>
<g>
</g>
<g>
</g>
<g>
</g>
<g>
</g>
<g>
</g>
<g>
</g>
<g>
</g>
<g>
</g>
<g>
</g>
<g>
</g>
</svg>
